<svg width="99" height="99" viewBox="0 0 99 99" fill="none" xmlns="http://www.w3.org/2000/svg">
<path d="M84.2112 6.30235V92.6976C84.2112 95.0816 82.285 97.0079 79.9009 97.0079H19.099C16.715 96.9921 14.7888 95.0659 14.7888 92.6976V6.30235C14.7888 3.91827 16.715 1.99207 19.099 1.99207H79.9167C82.285 1.99207 84.2112 3.91827 84.2112 6.30235Z" fill="url(#paint0_linear_6_128)"/>
<path d="M79.7888 9.93873V89.0454C79.7888 91.2284 78.0962 92.9921 76.0014 92.9921H22.5761C20.4813 92.9776 18.7888 91.2139 18.7888 89.0454V9.93873C18.7888 7.75577 20.4813 5.99207 22.5761 5.99207H76.0153C78.0962 5.99207 79.7888 7.75577 79.7888 9.93873Z" fill="url(#paint1_linear_6_128)"/>
<path d="M41.6609 20.2437V24.1751C41.6609 24.4593 41.4399 24.6803 41.1557 24.6803H36.3402C36.056 24.6803 35.835 24.9013 35.835 25.1855V30.0011C35.835 30.2853 35.6139 30.5063 35.3297 30.5063H31.3984C31.1142 30.5063 30.8931 30.2853 30.8931 30.0011V25.1855C30.8931 24.9013 30.6721 24.6803 30.3879 24.6803H25.5882C25.304 24.6803 25.0829 24.4593 25.0829 24.1751V20.2437C25.0829 19.9595 25.304 19.7385 25.5882 19.7385H30.4037C30.6879 19.7385 30.9089 19.5174 30.9089 19.2332V14.4177C30.9089 14.1335 31.13 13.9125 31.4142 13.9125H35.3455C35.6297 13.9125 35.8507 14.1335 35.8507 14.4177V19.2332C35.8507 19.5174 36.0718 19.7385 36.356 19.7385H41.1557C41.4399 19.7385 41.6609 19.9595 41.6609 20.2437Z" fill="url(#paint2_linear_6_128)"/>
<path d="M73.3645 41.6688H25.6355C25.3198 41.6688 25.0671 41.4162 25.0671 41.1004V39.2848C25.0671 38.969 25.3198 38.7164 25.6355 38.7164H73.3645C73.6802 38.7164 73.9329 38.969 73.9329 39.2848V41.1004C73.9171 41.4162 73.6802 41.6688 73.3645 41.6688Z" fill="url(#paint3_linear_6_128)"/>
<path d="M73.3645 19.0438H49.6816C49.3658 19.0438 49.1132 18.7912 49.1132 18.4754V16.6755C49.1132 16.3597 49.3658 16.1071 49.6816 16.1071H73.3645C73.6802 16.1071 73.9328 16.3597 73.9328 16.6755V18.4912C73.9171 18.7912 73.6802 19.0438 73.3645 19.0438Z" fill="url(#paint4_linear_6_128)"/>
<path d="M66.3543 26.717H49.6816C49.3658 26.717 49.1132 26.4644 49.1132 26.1486V24.3329C49.1132 24.0172 49.3658 23.7646 49.6816 23.7646H66.3543C66.6701 23.7646 66.9227 24.0172 66.9227 24.3329V26.1486C66.9069 26.4644 66.6701 26.717 66.3543 26.717Z" fill="url(#paint5_linear_6_128)"/>
<path d="M73.3645 50.2894H25.6355C25.3198 50.2894 25.0671 50.0368 25.0671 49.721V47.9053C25.0671 47.5896 25.3198 47.3369 25.6355 47.3369H73.3645C73.6802 47.3369 73.9329 47.5896 73.9329 47.9053V49.721C73.9171 50.0368 73.6802 50.2894 73.3645 50.2894Z" fill="url(#paint6_linear_6_128)"/>
<path d="M73.3645 58.91H25.6355C25.3198 58.91 25.0671 58.6574 25.0671 58.3416V56.5259C25.0671 56.2101 25.3198 55.9575 25.6355 55.9575H73.3645C73.6802 55.9575 73.9329 56.2101 73.9329 56.5259V58.3574C73.9171 58.6574 73.6802 58.91 73.3645 58.91Z" fill="url(#paint7_linear_6_128)"/>
<path d="M73.3645 67.5463H25.6355C25.3198 67.5463 25.0671 67.2937 25.0671 66.978V65.1623C25.0671 64.8465 25.3198 64.5939 25.6355 64.5939H73.3645C73.6802 64.5939 73.9329 64.8465 73.9329 65.1623V66.978C73.9171 67.2937 73.6802 67.5463 73.3645 67.5463Z" fill="url(#paint8_linear_6_128)"/>
<path d="M73.3645 76.1669H25.6355C25.3198 76.1669 25.0671 75.9143 25.0671 75.5986V73.7828C25.0671 73.4671 25.3198 73.2144 25.6355 73.2144H73.3645C73.6802 73.2144 73.9329 73.4671 73.9329 73.7828V75.5986C73.9171 75.9143 73.6802 76.1669 73.3645 76.1669Z" fill="url(#paint9_linear_6_128)"/>
<path d="M73.3645 84.7875H25.6355C25.3198 84.7875 25.0671 84.5349 25.0671 84.2191V82.4034C25.0671 82.0876 25.3198 81.835 25.6355 81.835H73.3645C73.6802 81.835 73.9329 82.0876 73.9329 82.4034V84.2191C73.9171 84.5349 73.6802 84.7875 73.3645 84.7875Z" fill="url(#paint10_linear_6_128)"/>
<path d="M84.2112 6.30235V92.6976C84.2112 95.0816 82.285 97.0079 79.9009 97.0079H19.099C16.715 96.9921 14.7888 95.0659 14.7888 92.6976V91.1976C51.8762 75.8827 69.1489 17.1491 73.0487 1.99207H79.9009C82.285 1.99207 84.2112 3.91827 84.2112 6.30235Z" fill="#1A6FB5" fill-opacity="0.1"/>
<defs>
<linearGradient id="paint0_linear_6_128" x1="109.789" y1="127.992" x2="8.78875" y2="-3.50793" gradientUnits="userSpaceOnUse">
<stop offset="0.3061" stop-color="#5BA7FC"/>
<stop offset="1" stop-color="#69B8FC"/>
</linearGradient>
<linearGradient id="paint1_linear_6_128" x1="20.0513" y1="5.31831" x2="73.1013" y2="84.8932" gradientUnits="userSpaceOnUse">
<stop offset="0.3061" stop-color="white"/>
<stop offset="1" stop-color="white"/>
</linearGradient>
<linearGradient id="paint2_linear_6_128" x1="13.5569" y1="-11.867" x2="108.489" y2="101.531" gradientUnits="userSpaceOnUse">
<stop stop-color="#B0F4FF"/>
<stop offset="0.368525" stop-color="#80E4FD"/>
<stop offset="1" stop-color="#6CDDFC"/>
</linearGradient>
<linearGradient id="paint3_linear_6_128" x1="14.8061" y1="49.7159" x2="84.199" y2="49.7159" gradientUnits="userSpaceOnUse">
<stop stop-color="#6CBCFC"/>
<stop offset="1" stop-color="#458DFC"/>
</linearGradient>
<linearGradient id="paint4_linear_6_128" x1="14.79" y1="49.5347" x2="84.1872" y2="49.5347" gradientUnits="userSpaceOnUse">
<stop stop-color="#6CBCFC"/>
<stop offset="1" stop-color="#458DFC"/>
</linearGradient>
<linearGradient id="paint5_linear_6_128" x1="14.7905" y1="49.9141" x2="84.1787" y2="49.9141" gradientUnits="userSpaceOnUse">
<stop stop-color="#6CBCFC"/>
<stop offset="1" stop-color="#458DFC"/>
</linearGradient>
<linearGradient id="paint6_linear_6_128" x1="14.8061" y1="49.8414" x2="84.199" y2="49.8414" gradientUnits="userSpaceOnUse">
<stop stop-color="#6CBCFC"/>
<stop offset="1" stop-color="#458DFC"/>
</linearGradient>
<linearGradient id="paint7_linear_6_128" x1="14.8061" y1="49.9674" x2="84.199" y2="49.9674" gradientUnits="userSpaceOnUse">
<stop stop-color="#6CBCFC"/>
<stop offset="1" stop-color="#458DFC"/>
</linearGradient>
<linearGradient id="paint8_linear_6_128" x1="14.8061" y1="49.5848" x2="84.199" y2="49.5848" gradientUnits="userSpaceOnUse">
<stop stop-color="#6CBCFC"/>
<stop offset="1" stop-color="#458DFC"/>
</linearGradient>
<linearGradient id="paint9_linear_6_128" x1="14.8061" y1="49.7103" x2="84.199" y2="49.7103" gradientUnits="userSpaceOnUse">
<stop stop-color="#6CBCFC"/>
<stop offset="1" stop-color="#458DFC"/>
</linearGradient>
<linearGradient id="paint10_linear_6_128" x1="14.8061" y1="49.8358" x2="84.199" y2="49.8358" gradientUnits="userSpaceOnUse">
<stop stop-color="#6CBCFC"/>
<stop offset="1" stop-color="#458DFC"/>
</linearGradient>
</defs>
</svg>
