<svg width="99" height="99" viewBox="0 0 99 99" fill="none" xmlns="http://www.w3.org/2000/svg">
<path d="M80.4287 33.4806L80.2051 80.9796C80.1732 87.0967 74.3596 92.0319 67.2044 91.9999L31.4603 91.8402C24.3211 91.7923 18.5394 86.8092 18.5714 80.6762L18.795 33.1771C18.8109 28.226 22.6441 24.0415 27.8827 22.652L27.8987 20.0965V18.7869L71.4528 18.9945L71.4368 22.8596C76.6595 24.313 80.4447 28.5135 80.4287 33.4806Z" fill="url(#paint0_linear_6_102)"/>
<path d="M74.695 8.77277V9.12414L74.6631 13.2767L74.6311 17.3494V17.8445C74.6311 18.6112 73.9923 19.2341 73.2256 19.2341H72.8902L64.0421 19.1702L61.9019 19.1382L50.7059 19.0584L48.5977 19.0264L26.4293 18.8667H26.0939C25.3273 18.8667 24.7044 18.2279 24.7044 17.4612V17.0939L24.7683 8.88457V8.38945C24.7683 7.62283 25.4071 6.99994 26.1898 6.99994H26.5252L41.9536 7.11174L46.3777 7.15965L64.074 7.28742L66.4218 7.31937L72.9701 7.36728H73.3055C74.0881 7.38325 74.695 8.00614 74.695 8.77277Z" fill="url(#paint1_linear_6_102)"/>
<path d="M74.695 9.14013L74.6631 13.2767L74.6311 17.3494L72.7305 17.3335L67.8912 17.3015H65.3517L58.1965 17.2536H55.6571L48.5019 17.2057H45.9624L38.7912 17.1578H36.2677L29.0966 17.1099H26.5731L24.7044 17.0939L24.7683 8.88457L29.2084 8.90055L38.903 8.96444H41.2189L48.5977 9.01235H50.9135L58.2923 9.06027H60.6082L67.987 9.10818H70.3029L72.8423 9.12415L74.695 9.14013Z" fill="url(#paint2_linear_6_102)"/>
<path d="M80.3819 41.8841L18.7481 41.5926L18.6189 68.9197L80.2527 69.2112L80.3819 41.8841Z" fill="#F7F9FC"/>
<path d="M80.3928 41.884L18.759 41.5926L18.7358 46.5118L80.3696 46.8032L80.3928 41.884Z" fill="#FBFCF7"/>
<path d="M42.7841 52.5803L38.8072 52.5643L38.8231 48.5714L33.3449 48.5555L33.329 52.5324L29.3521 52.5164L29.3201 57.9786L33.297 57.9946L33.281 61.9875L38.7593 62.0034L38.7752 58.0265L42.7521 58.0425L42.7841 52.5803Z" fill="url(#paint3_linear_6_102)"/>
<path d="M69.8077 53.906L50.099 53.8101C49.5719 53.8101 49.1407 53.3789 49.1407 52.8518V52.4046C49.1407 51.8776 49.5719 51.4464 50.099 51.4464L69.8077 51.5422C70.3348 51.5422 70.766 51.9734 70.766 52.5005V52.9477C70.766 53.4747 70.3348 53.906 69.8077 53.906Z" fill="url(#paint4_linear_6_102)"/>
<path d="M69.7918 59.7674L50.083 59.6716C49.556 59.6716 49.1247 59.2403 49.1247 58.7133V58.2661C49.1247 57.739 49.556 57.3078 50.083 57.3078L69.7918 57.4036C70.3188 57.4036 70.75 57.8349 70.75 58.3619V58.8091C70.75 59.3362 70.3188 59.7674 69.7918 59.7674Z" fill="url(#paint5_linear_6_102)"/>
<path d="M24.7044 8.7728V9.12417L24.7683 17.3335V17.8286C24.7683 18.5952 25.4071 19.2181 26.1738 19.2181H26.5092L72.9222 18.8827H73.2576C74.0242 18.8827 74.6471 18.2439 74.6471 17.4772V17.1099C49.9393 18.18 26.0939 7.36731 26.0939 7.36731C25.3273 7.38328 24.7044 8.00617 24.7044 8.7728Z" fill="#1A6FB5"/>
<defs>
<linearGradient id="paint0_linear_6_102" x1="18.5714" y1="6.47332" x2="87.3517" y2="88.2379" gradientUnits="userSpaceOnUse">
<stop stop-color="#6CBCFC"/>
<stop offset="1" stop-color="#458DFC"/>
</linearGradient>
<linearGradient id="paint1_linear_6_102" x1="-768.483" y1="-270.433" x2="-19.674" y2="-261.144" gradientUnits="userSpaceOnUse">
<stop stop-color="#B0F4FF"/>
<stop offset="0.0525488" stop-color="#A9F2FF"/>
<stop offset="0.2879" stop-color="#8DE8FE"/>
<stop offset="0.5247" stop-color="#79E1FD"/>
<stop offset="0.7618" stop-color="#6DDDFC"/>
<stop offset="1" stop-color="#69DCFC"/>
</linearGradient>
<linearGradient id="paint2_linear_6_102" x1="18.5798" y1="49.4604" x2="80.4314" y2="49.4604" gradientUnits="userSpaceOnUse">
<stop stop-color="#B0F4FF"/>
<stop offset="0.0525488" stop-color="#A9F2FF"/>
<stop offset="0.2879" stop-color="#8DE8FE"/>
<stop offset="0.5247" stop-color="#79E1FD"/>
<stop offset="0.7618" stop-color="#6DDDFC"/>
<stop offset="1" stop-color="#69DCFC"/>
</linearGradient>
<linearGradient id="paint3_linear_6_102" x1="70.1614" y1="16.7325" x2="11.1887" y2="66.1631" gradientUnits="userSpaceOnUse">
<stop stop-color="#6CBCFC"/>
<stop offset="1" stop-color="#458DFC"/>
</linearGradient>
<linearGradient id="paint4_linear_6_102" x1="80.9725" y1="49.3201" x2="13.758" y2="49.3201" gradientUnits="userSpaceOnUse">
<stop stop-color="#6CBCFC"/>
<stop offset="1" stop-color="#458DFC"/>
</linearGradient>
<linearGradient id="paint5_linear_6_102" x1="18.567" y1="49.309" x2="80.4297" y2="49.309" gradientUnits="userSpaceOnUse">
<stop stop-color="#6CBCFC"/>
<stop offset="1" stop-color="#458DFC"/>
</linearGradient>
</defs>
</svg>
