<svg width="99" height="99" viewBox="0 0 99 99" fill="none" xmlns="http://www.w3.org/2000/svg">
<path d="M60.2153 47.3151L12.8031 92.5661C11.7967 93.5289 10.5057 94.0103 9.21463 94.0103C7.80162 94.0103 6.38861 93.4367 5.36188 92.2998C3.33894 90.0669 3.60324 86.5743 5.93116 84.6692L56.1185 43.7712L60.2153 47.3151Z" fill="url(#paint0_linear_6_96)"/>
<path d="M50.7409 56.4207L41.8054 64.9424L40.982 56.1851L45.8716 52.2008L50.7409 56.4207Z" fill="#3A81D6" fill-opacity="0.8"/>
<path d="M95.9777 33.9078C95.9777 50.4288 82.6812 63.8259 66.2943 63.8259C55.9661 63.8259 46.8679 58.5101 41.5513 50.4391C38.4305 45.7071 36.6108 40.0225 36.6108 33.9078C36.6108 17.3868 49.9074 4 66.2943 4C73.6948 4 80.4549 6.72448 85.6495 11.2311C91.9725 16.7211 95.9777 24.8433 95.9777 33.9078Z" fill="url(#paint1_linear_6_96)"/>
<path d="M95.9777 33.9078C95.9777 50.4288 82.6812 63.8259 66.2943 63.8259C55.9661 63.8259 46.8679 58.5101 41.5513 50.4391C75.0265 47.6941 83.8502 19.1178 85.6596 11.2311C91.9725 16.7211 95.9777 24.8433 95.9777 33.9078Z" fill="#1A6FB5" fill-opacity="0.5"/>
<path d="M66.2943 57.2093C79.0668 57.2093 89.4209 46.7768 89.4209 33.9078C89.4209 21.0387 79.0668 10.6063 66.2943 10.6063C53.5218 10.6063 43.1676 21.0387 43.1676 33.9078C43.1676 46.7768 53.5218 57.2093 66.2943 57.2093Z" fill="white"/>
<path d="M66.2943 33.959C68.978 33.959 71.1534 31.7672 71.1534 29.0632C71.1534 26.3592 68.978 24.1673 66.2943 24.1673C63.6106 24.1673 61.4351 26.3592 61.4351 29.0632C61.4351 31.7672 63.6004 33.959 66.2943 33.959ZM66.2943 36.407C63.0515 36.407 56.576 38.0458 56.576 41.3028V42.5319C56.576 43.2079 57.1249 43.761 57.7959 43.761H74.813C75.4839 43.761 76.0329 43.2079 76.0329 42.5319V41.3028C76.0125 38.056 69.5371 36.407 66.2943 36.407Z" fill="url(#paint2_linear_6_96)"/>
<defs>
<linearGradient id="paint0_linear_6_96" x1="13.2843" y1="83.827" x2="98.5841" y2="13.5421" gradientUnits="userSpaceOnUse">
<stop stop-color="#67C3F3"/>
<stop offset="1" stop-color="#5A98F2"/>
</linearGradient>
<linearGradient id="paint1_linear_6_96" x1="30.9676" y1="7.17962" x2="64.5477" y2="84.3332" gradientUnits="userSpaceOnUse">
<stop stop-color="#67C3F3"/>
<stop offset="1" stop-color="#5A98F2"/>
</linearGradient>
<linearGradient id="paint2_linear_6_96" x1="59.2683" y1="32.3947" x2="76.9192" y2="40.9391" gradientUnits="userSpaceOnUse">
<stop stop-color="#B0F4FF"/>
<stop offset="0.071077" stop-color="#A6F1FF"/>
<stop offset="0.2937" stop-color="#8BE8FD"/>
<stop offset="0.5209" stop-color="#78E1FD"/>
<stop offset="0.7536" stop-color="#6DDDFC"/>
<stop offset="1" stop-color="#69DCFC"/>
</linearGradient>
</defs>
</svg>
