<svg width="99" height="99" viewBox="0 0 99 99" fill="none" xmlns="http://www.w3.org/2000/svg">
<path d="M75.979 26.6389H22.7618V83.7555H75.979V26.6389Z" fill="url(#paint0_linear_6_143)"/>
<path d="M22.5416 26.6389C22.6059 26.6389 22.6701 26.6664 22.7618 26.694C22.7618 45.6961 22.7618 64.6983 22.7618 83.728C18.6421 84.0491 15.1646 83.0123 12.4029 80.3515C10.4485 78.4613 9.50344 76.2409 9.50344 73.7269C9.50344 64.8268 9.50344 55.9358 9.50344 47.0357C9.50344 43.6408 9.49426 40.246 9.49426 36.8511C9.49426 32.7497 11.7055 29.7677 15.7702 27.7491C17.8622 26.7215 20.1836 26.5655 22.5416 26.6389Z" fill="url(#paint1_linear_6_143)"/>
<path d="M66.6843 26.6297C69.0607 26.6297 69.2993 26.6297 71.6665 26.6297C71.6665 45.6961 71.6665 64.6983 71.6665 83.7372C55.5087 83.7372 43.2871 83.7372 27.0743 83.7372C27.0743 64.7075 27.0743 45.7053 27.0743 26.6481C29.4415 26.6481 29.9553 26.6481 32.3685 26.6481C32.3685 26.4095 32.3685 26.226 32.3685 26.0517C32.3685 24.0056 32.3776 21.9503 32.3593 19.9042C32.3409 18.4728 32.7263 17.225 33.8457 16.2524C34.6348 15.5734 35.5431 15.2248 36.5708 15.2248C39.7546 15.2156 42.9293 15.2156 46.1132 15.2156C51.4624 15.2156 56.8208 15.2248 62.17 15.2156C63.5739 15.2156 64.7391 15.6743 65.6567 16.7387C66.3907 17.592 66.666 18.5921 66.666 19.7115C66.6568 21.8677 66.666 24.0239 66.666 26.1801C66.6568 26.2994 66.666 26.437 66.6843 26.6297ZM38.1122 26.6297C38.3325 26.6297 38.4976 26.6297 38.6628 26.6297C41.1952 26.6297 43.7367 26.6297 46.2691 26.6297C51.0036 26.6297 55.7473 26.6297 60.4818 26.6389C60.858 26.6389 60.9405 26.5196 60.9405 26.1618C60.9222 24.5561 60.9405 22.9504 60.9405 21.3447C60.9405 21.2163 60.9222 21.0878 60.9038 20.9502C53.2883 20.9502 45.7186 20.9502 38.1122 20.9502C38.1122 22.8403 38.1122 24.6937 38.1122 26.6297Z" fill="white"/>
<mask id="mask0_6_143" style="mask-type:alpha" maskUnits="userSpaceOnUse" x="27" y="15" width="45" height="69">
<path d="M66.6843 26.6297C69.0607 26.6297 69.2993 26.6297 71.6665 26.6297C71.6665 45.6961 71.6665 64.6983 71.6665 83.7372C55.5087 83.7372 43.2871 83.7372 27.0742 83.7372C27.0742 64.7075 27.0742 45.7053 27.0742 26.6481C29.4415 26.6481 29.9553 26.6481 32.3684 26.6481C32.3684 26.4095 32.3684 26.226 32.3684 26.0517C32.3684 24.0056 32.3776 21.9503 32.3593 19.9042C32.3409 18.4728 32.7263 17.225 33.8457 16.2524C34.6347 15.5734 35.5431 15.2248 36.5708 15.2248C39.7546 15.2156 42.9293 15.2156 46.1131 15.2156C51.4624 15.2156 56.8208 15.2248 62.17 15.2156C63.5738 15.2156 64.7391 15.6743 65.6567 16.7387C66.3907 17.592 66.6659 18.5921 66.6659 19.7115C66.6568 21.8677 66.6659 24.0239 66.6659 26.1801C66.6568 26.2994 66.6659 26.437 66.6843 26.6297ZM38.1122 26.6297C38.3324 26.6297 38.4976 26.6297 38.6627 26.6297C41.1951 26.6297 43.7367 26.6297 46.2691 26.6297C51.0036 26.6297 55.7473 26.6297 60.4817 26.6389C60.8579 26.6389 60.9405 26.5196 60.9405 26.1618C60.9222 24.5561 60.9405 22.9504 60.9405 21.3447C60.9405 21.2163 60.9222 21.0878 60.9038 20.9502C53.2883 20.9502 45.7186 20.9502 38.1122 20.9502C38.1122 22.8403 38.1122 24.6937 38.1122 26.6297Z" fill="#F7F9FC"/>
</mask>
<g mask="url(#mask0_6_143)">
<path d="M67.5994 12.6282H30.5034V26.6481H67.5994V12.6282Z" fill="url(#paint2_linear_6_143)"/>
</g>
<path d="M89.5035 36.7044C89.5035 32.9241 87.439 30.1073 83.7689 28.0612C81.5117 26.8041 78.9518 26.5656 76.3276 26.6206C75.9239 26.6298 75.979 26.8408 75.979 27.0611C75.979 33.6673 75.979 40.2644 75.979 46.8707C75.979 58.4775 75.979 70.0752 75.9698 81.682C75.9698 82.3518 75.9698 83.0216 75.9698 83.7465C77.6214 83.8015 79.1903 83.8107 80.7318 83.4437C85.9434 82.2142 89.4943 78.333 89.4943 73.7545C89.5126 61.4136 89.5035 49.0544 89.5035 36.7044Z" fill="url(#paint3_linear_6_143)"/>
<path d="M53.7195 59.4134C53.7195 60.597 53.7195 61.7164 53.7195 62.8449C53.7195 64.1203 53.7195 65.3957 53.7195 66.6619C53.7195 67.4234 53.3342 67.8272 52.5818 67.8272C50.5081 67.8363 48.4345 67.8363 46.3609 67.8272C45.6727 67.8272 45.2874 67.3959 45.2874 66.6711C45.2874 64.3956 45.2874 62.1201 45.2874 59.8446C45.2874 59.7161 45.2874 59.5785 45.2874 59.4134C45.113 59.4134 44.9846 59.4134 44.8469 59.4134C42.6082 59.4134 40.3602 59.4134 38.1214 59.4134C37.2314 59.4134 36.8644 59.0555 36.8644 58.1655C36.8644 56.1928 36.8644 54.2201 36.8644 52.2474C36.8644 51.3482 37.2222 50.9904 38.1122 50.9904C40.3418 50.9904 42.5715 50.9904 44.8011 50.9904C44.9479 50.9904 45.0855 50.9904 45.2782 50.9904C45.2782 50.8436 45.2782 50.7243 45.2782 50.605C45.2782 48.3295 45.2782 46.054 45.2782 43.7785C45.2782 42.9344 45.6544 42.5674 46.4985 42.5674C48.4712 42.5674 50.4439 42.5674 52.4166 42.5674C53.3433 42.5674 53.7012 42.916 53.7012 43.8611C53.7103 46.1182 53.7012 48.3662 53.7012 50.6234C53.7012 50.7335 53.7012 50.8436 53.7012 50.9995C53.848 50.9995 53.9764 50.9995 54.0957 50.9995C56.3712 50.9995 58.6467 50.9995 60.9222 51.0087C61.7571 51.0087 62.115 51.3757 62.115 52.2107C62.115 54.1926 62.115 56.1744 62.115 58.1563C62.115 59.0647 61.7663 59.4134 60.8763 59.4134C58.61 59.4134 56.3437 59.4134 54.0865 59.4225C53.9948 59.4134 53.8847 59.4134 53.7195 59.4134Z" fill="url(#paint4_linear_6_143)"/>
<defs>
<linearGradient id="paint0_linear_6_143" x1="22.7632" y1="55.1938" x2="75.9764" y2="55.1938" gradientUnits="userSpaceOnUse">
<stop stop-color="#B0F4FF"/>
<stop offset="1" stop-color="#69DCFC"/>
</linearGradient>
<linearGradient id="paint1_linear_6_143" x1="9.50344" y1="55.2028" x2="22.7632" y2="55.2028" gradientUnits="userSpaceOnUse">
<stop stop-color="#6CBCFC"/>
<stop offset="1" stop-color="#458DFC"/>
</linearGradient>
<linearGradient id="paint2_linear_6_143" x1="30.4996" y1="19.6367" x2="67.5978" y2="19.6367" gradientUnits="userSpaceOnUse">
<stop stop-color="#6CBCFC"/>
<stop offset="1" stop-color="#458DFC"/>
</linearGradient>
<linearGradient id="paint3_linear_6_143" x1="75.972" y1="55.1972" x2="89.5042" y2="55.1972" gradientUnits="userSpaceOnUse">
<stop stop-color="#6CBCFC"/>
<stop offset="1" stop-color="#458DFC"/>
</linearGradient>
<linearGradient id="paint4_linear_6_143" x1="36.87" y1="55.2064" x2="62.1333" y2="55.2064" gradientUnits="userSpaceOnUse">
<stop stop-color="#6CBCFC"/>
<stop offset="1" stop-color="#458DFC"/>
</linearGradient>
</defs>
</svg>
