<svg width="99" height="99" viewBox="0 0 99 99" fill="none" xmlns="http://www.w3.org/2000/svg">
<path d="M83.0377 92.444C83.0377 94.9231 81.0312 96.9378 78.5522 96.9378L20.5473 97.0042C18.574 97.0042 16.8992 95.7356 16.2939 93.9696C16.1364 93.5136 16.0535 93.0327 16.0535 92.5269L15.9623 8.87752C15.9623 6.39846 17.9687 4.38371 20.4478 4.38371L78.4527 4.31738C80.9317 4.31738 82.9465 6.32384 82.9465 8.80289L83.0377 92.444Z" fill="url(#paint0_linear_6_108)"/>
<path d="M77.0266 91.9632L22.0645 92.0212C20.7297 92.0212 19.6518 90.9434 19.6518 89.6085L19.5689 11.7629C19.5689 10.428 20.6468 9.35015 21.9816 9.35015L76.9354 9.29211C78.2703 9.29211 79.3481 10.37 79.3481 11.7048L79.431 89.5504C79.4393 90.877 78.3615 91.9632 77.0266 91.9632Z" fill="white"/>
<path d="M69.3076 15.7094L29.2198 15.7592C27.8933 15.7592 26.8071 14.6813 26.8071 13.3547L26.7988 6.67208C26.7988 5.34549 27.8767 4.25935 29.2033 4.25935L69.2993 4.2179C70.6259 4.2179 71.712 5.29574 71.712 6.62233L71.7203 13.305C71.712 14.6316 70.6341 15.7094 69.3076 15.7094ZM29.2033 5.48644C28.5566 5.48644 28.0259 6.01707 28.0259 6.66378L28.0342 13.3464C28.0342 13.9932 28.5648 14.5238 29.2116 14.5238L69.3076 14.4823C69.9543 14.4823 70.4849 13.9517 70.4849 13.305L70.4766 6.62233C70.4766 5.97562 69.946 5.44499 69.2993 5.44499L29.2033 5.48644Z" fill="url(#paint1_linear_6_108)"/>
<path d="M68.1717 7.11149L30.7371 7.15295C30.3226 7.15295 29.9909 6.8213 29.9909 6.40674V2.78351C29.9909 2.36895 30.3226 2.03731 30.7371 2.03731L68.1634 1.99585C68.5779 1.99585 68.9096 2.3275 68.9096 2.74205V6.36529C68.9179 6.77984 68.5862 7.11149 68.1717 7.11149Z" fill="url(#paint2_linear_6_108)"/>
<path d="M30.7703 7.15299L68.1385 7.11153C68.5696 7.11153 68.9179 6.76331 68.9179 6.33217V4.55786L29.9826 4.59932V6.37362C29.9826 6.80476 30.3391 7.15299 30.7703 7.15299Z" fill="#58D6F4"/>
<path d="M43.9035 83.2076L40.6699 63.6405L38.0499 72.1555L30.5547 72.1638C30.0987 72.1638 29.7339 71.799 29.7339 71.343C29.7339 70.887 30.0987 70.5222 30.5547 70.5222L36.8477 70.5139L41.1674 56.4935L44.4009 76.1104L48.5963 62.6373L50.8266 69.0215L55.851 56.8418L60.7345 76.1601L62.5751 70.0164L67.9644 70.0081C68.4204 70.0081 68.7852 70.3729 68.7852 70.8289C68.7852 71.2849 68.4204 71.6497 67.9644 71.6497L63.7939 71.658L60.6018 82.3122L55.4779 62.0486L50.6939 73.6313L48.6792 67.869L43.9035 83.2076Z" fill="#58D6F4"/>
<path d="M38.3483 45.4829L27.8103 45.4912C26.1106 45.4912 24.7177 44.1066 24.7177 42.4069L24.7011 27.6735C24.7011 25.9738 26.0857 24.5809 27.7854 24.5809L38.3235 24.5726C40.0232 24.5726 41.4161 25.9573 41.4161 27.6569L41.4327 42.3903C41.4327 44.09 40.048 45.4746 38.3483 45.4829ZM27.7771 25.4764C26.5666 25.4764 25.5883 26.463 25.5883 27.6735L25.6048 42.4069C25.6048 43.6174 26.5915 44.5958 27.802 44.5958L38.3401 44.5875C39.5506 44.5875 40.5289 43.6008 40.5289 42.3903L40.5123 27.6569C40.5123 26.4464 39.5257 25.4681 38.3152 25.4681L27.7771 25.4764Z" fill="url(#paint3_linear_6_108)"/>
<path d="M33.0669 42.6557C38.0499 42.6474 39.6003 39.7703 39.6003 39.7703C39.3765 39.4884 39.0946 39.2397 38.7132 38.991C37.4032 38.137 36.3502 37.7722 35.9108 37.4074C35.4631 37.0508 35.2143 36.5285 35.2143 36.5285L34.9407 36.6943C34.9407 36.6943 34.7749 36.1222 34.8661 35.2517C34.8661 35.2517 35.2558 35.1522 35.546 33.8339C36.0103 33.9251 36.5575 32.7477 36.3005 32.3166C36.1346 32.0347 35.9357 32.0596 35.7947 32.1259C35.9357 31.5372 36.5741 28.2788 33.0586 28.2788C29.5432 28.2788 30.1816 31.5372 30.3308 32.1259C30.1899 32.0596 29.9909 32.0347 29.8251 32.3166C29.5681 32.7477 30.1236 33.9251 30.5879 33.8339C30.8781 35.1522 31.276 35.2434 31.276 35.2434C31.3755 36.1057 31.2014 36.686 31.2014 36.686L30.9278 36.5202C30.9278 36.5202 30.6791 37.0343 30.2313 37.3991C29.7836 37.7639 28.7389 38.137 27.4289 38.991C27.0475 39.2397 26.7574 39.4884 26.5418 39.7703C26.5335 39.7869 28.0922 42.6639 33.0669 42.6557Z" fill="url(#paint4_linear_6_108)"/>
<path d="M65.8833 29.2738L45.5948 29.2987C45.2134 29.2987 44.9067 28.9919 44.9067 28.6105V28.4944C44.9067 28.113 45.2134 27.8062 45.5948 27.8062L65.8833 27.7814C66.2647 27.7814 66.5715 28.0881 66.5715 28.4695V28.5856C66.5715 28.967 66.2564 29.2738 65.8833 29.2738Z" fill="url(#paint5_linear_6_108)"/>
<path d="M58.4213 33.1375L45.5948 33.154C45.2134 33.154 44.9067 32.8473 44.9067 32.4659V32.3498C44.9067 31.9684 45.2134 31.6616 45.5948 31.6616L58.4213 31.645C58.8026 31.645 59.1094 31.9518 59.1094 32.3332V32.4493C59.1094 32.8307 58.8026 33.1375 58.4213 33.1375Z" fill="url(#paint6_linear_6_108)"/>
<path d="M72.881 37.7307L45.6031 37.7639C45.2217 37.7639 44.915 37.4571 44.915 37.0757V36.9596C44.915 36.5782 45.2217 36.2714 45.6031 36.2714L72.881 36.2383C73.2624 36.2383 73.5692 36.5451 73.5692 36.9264V37.0425C73.5609 37.4239 73.2541 37.7307 72.881 37.7307Z" fill="url(#paint7_linear_6_108)"/>
<path d="M72.2923 50.64L26.7905 50.6897C26.4008 50.6897 26.0775 50.3747 26.0775 49.9767V49.9104C26.0775 49.5207 26.3925 49.1973 26.7905 49.1973L72.2923 49.1476C72.682 49.1476 73.0054 49.4626 73.0054 49.8606V49.9269C73.0054 50.3249 72.682 50.64 72.2923 50.64Z" fill="url(#paint8_linear_6_108)"/>
<path d="M72.881 42.2411L45.6031 42.2742C45.2217 42.2742 44.915 41.9675 44.915 41.5861V41.47C44.915 41.0886 45.2217 40.7818 45.6031 40.7818L72.881 40.7487C73.2624 40.7487 73.5692 41.0554 73.5692 41.4368V41.5529C73.5692 41.9343 73.2624 42.2411 72.881 42.2411Z" fill="url(#paint9_linear_6_108)"/>
<defs>
<linearGradient id="paint0_linear_6_108" x1="6.6736" y1="35.2345" x2="92.723" y2="62.5105" gradientUnits="userSpaceOnUse">
<stop stop-color="#6CBCFC"/>
<stop offset="0.1713" stop-color="#5EABFC"/>
<stop offset="0.4084" stop-color="#509AFC"/>
<stop offset="0.6698" stop-color="#4890FC"/>
<stop offset="1" stop-color="#458DFC"/>
</linearGradient>
<linearGradient id="paint1_linear_6_108" x1="-8.02031" y1="-192.256" x2="103.294" y2="-182.532" gradientUnits="userSpaceOnUse">
<stop stop-color="#CFE9FF"/>
<stop offset="1" stop-color="#A1D6FB"/>
</linearGradient>
<linearGradient id="paint2_linear_6_108" x1="15.9459" y1="49.5179" x2="83.0505" y2="49.5179" gradientUnits="userSpaceOnUse">
<stop stop-color="#B0F4FF"/>
<stop offset="1" stop-color="#69DCFC"/>
</linearGradient>
<linearGradient id="paint3_linear_6_108" x1="37.5948" y1="32.1114" x2="83.0845" y2="83.9445" gradientUnits="userSpaceOnUse">
<stop stop-color="#6CBCFC"/>
<stop offset="1" stop-color="#458DFC"/>
</linearGradient>
<linearGradient id="paint4_linear_6_108" x1="28.7761" y1="26.7535" x2="95.5291" y2="93.732" gradientUnits="userSpaceOnUse">
<stop stop-color="#B0F4FF"/>
<stop offset="0.0994384" stop-color="#A1EFFE"/>
<stop offset="0.2994" stop-color="#88E7FD"/>
<stop offset="0.5095" stop-color="#77E1FD"/>
<stop offset="0.7344" stop-color="#6CDDFC"/>
<stop offset="1" stop-color="#69DCFC"/>
</linearGradient>
<linearGradient id="paint5_linear_6_108" x1="15.9659" y1="49.9255" x2="83.0242" y2="49.9275" gradientUnits="userSpaceOnUse">
<stop stop-color="#6CBCFC"/>
<stop offset="1" stop-color="#458DFC"/>
</linearGradient>
<linearGradient id="paint6_linear_6_108" x1="15.9865" y1="49.501" x2="83.0336" y2="49.501" gradientUnits="userSpaceOnUse">
<stop stop-color="#6CBCFC"/>
<stop offset="1" stop-color="#458DFC"/>
</linearGradient>
<linearGradient id="paint7_linear_6_108" x1="15.9659" y1="49.7829" x2="83.0269" y2="49.7829" gradientUnits="userSpaceOnUse">
<stop stop-color="#6CBCFC"/>
<stop offset="1" stop-color="#458DFC"/>
</linearGradient>
<linearGradient id="paint8_linear_6_108" x1="15.9617" y1="49.7676" x2="83.0344" y2="49.7676" gradientUnits="userSpaceOnUse">
<stop stop-color="#6CBCFC"/>
<stop offset="1" stop-color="#458DFC"/>
</linearGradient>
<linearGradient id="paint9_linear_6_108" x1="44.9211" y1="41.515" x2="73.5692" y2="41.515" gradientUnits="userSpaceOnUse">
<stop stop-color="#6CBCFC"/>
<stop offset="1" stop-color="#458DFC"/>
</linearGradient>
</defs>
</svg>
