<svg width="99" height="99" viewBox="0 0 99 99" fill="none" xmlns="http://www.w3.org/2000/svg">
<path d="M80.82 1.99622H18.18C16.8917 1.99622 15.8503 3.02444 15.8503 4.29638V94.7037C15.8503 95.9756 16.8917 97.0038 18.18 97.0038H80.82C82.1083 97.0038 83.1497 95.9756 83.1497 94.7037V4.29638C83.142 3.02444 82.1006 1.99622 80.82 1.99622Z" fill="url(#paint0_linear_6_104)"/>
<path d="M76.7083 6.09387H22.284C21.0343 6.09387 20.016 7.09924 20.016 8.34072V83.0885C20.016 84.33 21.0343 85.3278 22.284 85.3278H76.7083C77.9657 85.3278 78.9763 84.3224 78.9763 83.0885V8.34072C78.9763 7.09924 77.9657 6.09387 76.7083 6.09387Z" fill="white"/>
<path d="M60.624 41.6323H38.376C37.3577 41.6323 36.5323 40.8173 36.5323 39.8119V17.8385C36.5323 16.8331 37.3577 16.0181 38.376 16.0181H60.624C61.6423 16.0181 62.4677 16.8331 62.4677 17.8385V39.8043C62.4677 40.8097 61.6423 41.6323 60.624 41.6323Z" fill="url(#paint1_linear_6_104)"/>
<path d="M49.5 94.5437C51.3917 94.5437 52.9251 93.0296 52.9251 91.162C52.9251 89.2943 51.3917 87.7803 49.5 87.7803C47.6084 87.7803 46.0749 89.2943 46.0749 91.162C46.0749 93.0296 47.6084 94.5437 49.5 94.5437Z" fill="white"/>
<path d="M68.886 53.0112H30.1063C29.1266 53.0112 28.3243 52.2191 28.3243 51.2518C28.3243 50.2845 29.1266 49.4924 30.1063 49.4924H68.8783C69.858 49.4924 70.6603 50.2845 70.6603 51.2518C70.6603 52.2191 69.8657 53.0112 68.886 53.0112Z" fill="url(#paint2_linear_6_104)"/>
<path d="M62.3212 62.7603H29.4583C28.8335 62.7603 28.332 62.2576 28.332 61.6482V61.5264C28.332 60.9094 28.8412 60.4144 29.4583 60.4144H62.3212C62.946 60.4144 63.4474 60.9171 63.4474 61.5264V61.6482C63.4552 62.2576 62.946 62.7603 62.3212 62.7603Z" fill="url(#paint3_linear_6_104)"/>
<path d="M56.0649 68.9524H29.3503C28.7872 68.9524 28.3243 68.4954 28.3243 67.9394V67.6043C28.3243 67.0483 28.7872 66.5913 29.3503 66.5913H56.0572C56.6203 66.5913 57.0831 67.0483 57.0831 67.6043V67.9394C57.0831 68.4954 56.6203 68.9524 56.0649 68.9524Z" fill="url(#paint4_linear_6_104)"/>
<path d="M59.4283 74.6877H29.412C28.818 74.6877 28.332 74.2078 28.332 73.6214V73.4081C28.332 72.8216 28.818 72.3418 29.412 72.3418H59.4283C60.0223 72.3418 60.5083 72.8216 60.5083 73.4081V73.6214C60.5083 74.2002 60.0223 74.6877 59.4283 74.6877Z" fill="url(#paint5_linear_6_104)"/>
<path d="M49.5669 28.117C51.7945 28.117 53.6001 26.3103 53.6001 24.0816C53.6001 21.8528 51.7945 20.0462 49.5669 20.0462C47.3393 20.0462 45.5336 21.8528 45.5336 24.0816C45.5336 26.3103 47.3308 28.117 49.5669 28.117ZM49.5669 30.1347C46.8752 30.1347 41.5003 31.4854 41.5003 34.1701V35.1831C41.5003 35.7403 41.9559 36.1962 42.5128 36.1962H56.6378C57.1947 36.1962 57.6503 35.7403 57.6503 35.1831V34.1701C57.6334 31.4939 52.2585 30.1347 49.5669 30.1347Z" fill="white"/>
<defs>
<linearGradient id="paint0_linear_6_104" x1="19.9273" y1="47.0264" x2="83.1948" y2="52.4501" gradientUnits="userSpaceOnUse">
<stop stop-color="#6CBCFC"/>
<stop offset="1" stop-color="#458DFC"/>
</linearGradient>
<linearGradient id="paint1_linear_6_104" x1="10.6314" y1="21.5454" x2="97.2462" y2="52.8162" gradientUnits="userSpaceOnUse">
<stop stop-color="#B0F4FF"/>
<stop offset="0.0856277" stop-color="#A3F0FE"/>
<stop offset="0.2972" stop-color="#8AE7FD"/>
<stop offset="0.5161" stop-color="#77E1FD"/>
<stop offset="0.7451" stop-color="#6DDDFC"/>
<stop offset="1" stop-color="#69DCFC"/>
</linearGradient>
<linearGradient id="paint2_linear_6_104" x1="83.1556" y1="49.5384" x2="15.8619" y2="49.5384" gradientUnits="userSpaceOnUse">
<stop stop-color="#6CBCFC"/>
<stop offset="1" stop-color="#458DFC"/>
</linearGradient>
<linearGradient id="paint3_linear_6_104" x1="83.1601" y1="49.3624" x2="15.8495" y2="49.3624" gradientUnits="userSpaceOnUse">
<stop stop-color="#6CBCFC"/>
<stop offset="1" stop-color="#458DFC"/>
</linearGradient>
<linearGradient id="paint4_linear_6_104" x1="83.1515" y1="49.6711" x2="15.8673" y2="49.6711" gradientUnits="userSpaceOnUse">
<stop stop-color="#6CBCFC"/>
<stop offset="1" stop-color="#458DFC"/>
</linearGradient>
<linearGradient id="paint5_linear_6_104" x1="83.1484" y1="49.253" x2="15.8494" y2="49.253" gradientUnits="userSpaceOnUse">
<stop stop-color="#6CBCFC"/>
<stop offset="1" stop-color="#458DFC"/>
</linearGradient>
</defs>
</svg>
