<svg width="196" height="49" viewBox="0 0 196 49" fill="none" xmlns="http://www.w3.org/2000/svg">
<path d="M67.127 34L59.591 17.08H62.927L68.999 31.288H67.991L74.063 17.08H77.279L69.743 34H67.127Z" fill="#233348"/>
<path d="M78.7119 34V21.88H81.7119V34H78.7119ZM78.5439 19.6V16.672H81.8799V19.6H78.5439Z" fill="#233348"/>
<path d="M84.9457 34V24.976C84.9457 24.464 84.9297 23.944 84.8977 23.416C84.8817 22.888 84.8417 22.376 84.7777 21.88H87.6817L88.0177 25.192H87.5377C87.6977 24.392 87.9617 23.728 88.3297 23.2C88.7137 22.672 89.1777 22.28 89.7217 22.024C90.2657 21.768 90.8577 21.64 91.4977 21.64C91.7857 21.64 92.0177 21.656 92.1937 21.688C92.3697 21.704 92.5457 21.744 92.7217 21.808L92.6977 24.448C92.3937 24.32 92.1297 24.24 91.9057 24.208C91.6977 24.176 91.4337 24.16 91.1137 24.16C90.4257 24.16 89.8417 24.304 89.3617 24.592C88.8977 24.88 88.5457 25.28 88.3057 25.792C88.0817 26.304 87.9697 26.888 87.9697 27.544V34H84.9457Z" fill="#233348"/>
<path d="M100.255 34.24C98.8152 34.24 97.7272 33.864 96.9912 33.112C96.2552 32.36 95.8873 31.232 95.8873 29.728V24.136H93.5592V21.88H95.8873V18.784L98.8873 18.016V21.88H102.127V24.136H98.8873V29.536C98.8873 30.368 99.0472 30.952 99.3672 31.288C99.6872 31.624 100.127 31.792 100.687 31.792C100.991 31.792 101.247 31.768 101.455 31.72C101.679 31.672 101.895 31.608 102.103 31.528V33.904C101.831 34.016 101.527 34.096 101.191 34.144C100.871 34.208 100.559 34.24 100.255 34.24Z" fill="#233348"/>
<path d="M108.533 34.24C107.045 34.24 105.933 33.832 105.197 33.016C104.461 32.2 104.093 30.952 104.093 29.272V21.88H107.093V29.248C107.093 30.144 107.277 30.808 107.645 31.24C108.013 31.656 108.573 31.864 109.325 31.864C110.173 31.864 110.861 31.576 111.389 31C111.933 30.424 112.205 29.664 112.205 28.72V21.88H115.205V34H112.277V31.528H112.613C112.261 32.392 111.725 33.064 111.005 33.544C110.301 34.008 109.477 34.24 108.533 34.24Z" fill="#233348"/>
<path d="M118.702 34V17.08H121.798V24.136H130.462V17.08H133.558V34H130.462V26.704H121.798V34H118.702Z" fill="#233348"/>
<path d="M142.904 34.24C140.872 34.24 139.28 33.68 138.128 32.56C136.976 31.44 136.4 29.904 136.4 27.952C136.4 26.688 136.648 25.584 137.144 24.64C137.64 23.696 138.328 22.96 139.208 22.432C140.104 21.904 141.144 21.64 142.328 21.64C143.496 21.64 144.472 21.888 145.256 22.384C146.04 22.88 146.632 23.576 147.032 24.472C147.448 25.368 147.656 26.416 147.656 27.616V28.408H138.824V26.824H145.52L145.112 27.16C145.112 26.04 144.872 25.184 144.392 24.592C143.928 24 143.248 23.704 142.352 23.704C141.36 23.704 140.592 24.056 140.048 24.76C139.52 25.464 139.256 26.448 139.256 27.712V28.024C139.256 29.336 139.576 30.32 140.216 30.976C140.872 31.616 141.792 31.936 142.976 31.936C143.664 31.936 144.304 31.848 144.896 31.672C145.504 31.48 146.08 31.176 146.624 30.76L147.512 32.776C146.936 33.24 146.248 33.6 145.448 33.856C144.648 34.112 143.8 34.24 142.904 34.24Z" fill="#233348"/>
<path d="M154.876 34.24C153.82 34.24 152.892 33.992 152.092 33.496C151.292 32.984 150.668 32.256 150.22 31.312C149.772 30.368 149.548 29.24 149.548 27.928C149.548 26.616 149.772 25.496 150.22 24.568C150.668 23.624 151.292 22.904 152.092 22.408C152.892 21.896 153.82 21.64 154.876 21.64C155.9 21.64 156.796 21.896 157.564 22.408C158.348 22.904 158.868 23.576 159.124 24.424H158.86L159.124 21.88H162.004C161.956 22.376 161.908 22.88 161.86 23.392C161.828 23.904 161.812 24.408 161.812 24.904V34H158.836L158.812 31.504H159.1C158.844 32.336 158.324 33 157.54 33.496C156.756 33.992 155.868 34.24 154.876 34.24ZM155.716 31.936C156.66 31.936 157.42 31.608 157.996 30.952C158.572 30.28 158.86 29.272 158.86 27.928C158.86 26.584 158.572 25.584 157.996 24.928C157.42 24.272 156.66 23.944 155.716 23.944C154.772 23.944 154.012 24.272 153.436 24.928C152.86 25.584 152.572 26.584 152.572 27.928C152.572 29.272 152.852 30.28 153.412 30.952C153.988 31.608 154.756 31.936 155.716 31.936Z" fill="#233348"/>
<path d="M165.079 34V16.336H168.079V34H165.079Z" fill="#233348"/>
<path d="M176.521 34.24C175.081 34.24 173.993 33.864 173.257 33.112C172.521 32.36 172.153 31.232 172.153 29.728V24.136H169.825V21.88H172.153V18.784L175.153 18.016V21.88H178.393V24.136H175.153V29.536C175.153 30.368 175.313 30.952 175.633 31.288C175.953 31.624 176.393 31.792 176.953 31.792C177.257 31.792 177.513 31.768 177.721 31.72C177.945 31.672 178.161 31.608 178.369 31.528V33.904C178.097 34.016 177.793 34.096 177.457 34.144C177.137 34.208 176.825 34.24 176.521 34.24Z" fill="#233348"/>
<path d="M180.431 34V16.336H183.431V24.304H183.095C183.463 23.44 184.031 22.784 184.799 22.336C185.567 21.872 186.447 21.64 187.439 21.64C188.879 21.64 189.951 22.048 190.655 22.864C191.359 23.664 191.711 24.888 191.711 26.536V34H188.711V26.68C188.711 25.736 188.527 25.056 188.159 24.64C187.807 24.208 187.239 23.992 186.455 23.992C185.543 23.992 184.807 24.28 184.247 24.856C183.703 25.416 183.431 26.168 183.431 27.112V34H180.431Z" fill="#233348"/>
<path d="M47.783 24.5C47.783 35.8218 38.6048 45 27.283 45C15.9612 45 6.783 35.8218 6.783 24.5C6.783 13.1782 15.9612 4 27.283 4C38.6048 4 47.783 13.1782 47.783 24.5Z" fill="#458FF6"/>
<path d="M13.396 36L4 15.555H10.728L16.934 30.171H15.107L21.284 15.555H27.751L18.384 36H13.396Z" fill="white"/>
<path d="M28.6398 36V15.555H34.9038V23.095H41.8928V15.555H48.1568V36H41.8928V28.199H34.9038V36H28.6398Z" fill="white"/>
</svg>
